<?xml version="1.0" encoding="utf-8"?>
<!-- Generator: Adobe Illustrator 27.6.1, SVG Export Plug-In . SVG Version: 6.00 Build 0)  -->
<svg version="1.1" id="Artboard_1" xmlns="http://www.w3.org/2000/svg" xmlns:xlink="http://www.w3.org/1999/xlink" x="0px" y="0px"
	 viewBox="0 0 360 40" style="enable-background:new 0 0 360 40;" xml:space="preserve">
<style type="text/css">
	.st0{fill:#003A96;}
	.st1{fill:#009CA6;}
</style>
<g>
	<g>
		<path class="st0" d="M41.4,26.9v1.4h-4v3.2h3.6v1.4h-3.6v3.9h-1.8v-9.9L41.4,26.9L41.4,26.9z"/>
		<path class="st0" d="M45.5,36.9c-2.2,0-3.5-1.3-3.5-3.8c0-2.4,1.3-3.8,3.5-3.8s3.5,1.3,3.5,3.8C49.1,35.6,47.9,36.9,45.5,36.9z
			 M47.2,33.1c0-1.6-0.5-2.5-1.7-2.5c-1.2,0-1.7,1-1.7,2.5c0,1.6,0.5,2.5,1.7,2.5C46.8,35.7,47.2,34.6,47.2,33.1z"/>
		<path class="st0" d="M55.7,36.7l-0.4-1.2c-0.2,0.8-0.9,1.3-2.2,1.3c-1,0-1.6-0.4-2-0.9c-0.5-0.6-0.5-1.4-0.5-2.2v-4.2h1.7v4.3
			c0,0.5,0,0.8,0.3,1.2c0.3,0.4,0.6,0.5,1.2,0.5c1.2,0,1.3-1,1.3-1.6v-4.4H57v7.2C57,36.7,55.7,36.7,55.7,36.7z"/>
		<path class="st0" d="M60.5,29.5l0.4,1.3c0.3-0.8,0.9-1.4,2.2-1.4c1.1,0,1.7,0.5,2.1,1c0.5,0.6,0.5,1.4,0.5,2.2v4.2h-1.7v-4.3
			c0-0.5,0-0.8-0.3-1.2c-0.3-0.4-0.5-0.5-1.2-0.5c-1.3,0-1.4,1-1.4,1.6v4.4h-1.7v-7.2L60.5,29.5L60.5,29.5z"/>
		<path class="st0" d="M73.9,26.5v10.3h-1.4l-0.3-1.3c-0.2,0.8-1,1.3-2.2,1.3c-2,0-3.1-1.5-3.1-3.7c0-2.2,1.1-3.8,3.2-3.8
			c1.1,0,1.7,0.4,2,1.3v-4.1C72.2,26.5,73.9,26.5,73.9,26.5z M68.8,33.1c0,1.4,0.4,2.4,1.7,2.4s1.7-1.1,1.7-2.4
			c0-1.4-0.5-2.4-1.7-2.4S68.8,31.7,68.8,33.1z"/>
		<path class="st0" d="M77.9,27.4c0,0.5-0.4,1-1.1,1s-1.1-0.4-1.1-1s0.5-1,1.1-1S77.9,26.9,77.9,27.4z M77.8,29.5v1.2v6H76v-7.2
			H77.8z"/>
		<path class="st0" d="M81.2,29.5l0.4,1.3c0.3-0.8,0.9-1.4,2.2-1.4c1.1,0,1.7,0.5,2.1,1c0.4,0.6,0.4,1.4,0.4,2.2v4.2h-1.7v-4.3
			c0-0.5,0-0.8-0.3-1.2c-0.3-0.4-0.5-0.5-1.2-0.5c-1.3,0-1.4,1-1.4,1.6v4.4h-1.7v-7.2L81.2,29.5L81.2,29.5z"/>
		<path class="st0" d="M91,34c-0.4,0-0.7,0-1-0.1c-0.2,0.1-0.4,0.3-0.4,0.6c0,0.5,0.5,0.5,1,0.5h1.3c0.9,0,2.9,0,2.9,2
			c0,1.6-1.3,2.4-3.9,2.4c-2.3,0-3.3-0.6-3.3-1.7c0-1.3,1.3-1.4,1.4-1.4c0,0-0.9-0.4-0.9-1.3s0.9-1.3,1.3-1.3
			c-0.8-0.4-1.3-1.1-1.3-2c0-1.4,1.2-2.3,3-2.3c0.9,0,1.6,0.2,2.2,0.6c0.4-0.9,1.1-0.9,1.5-0.9H95v1.4c0,0-0.3-0.1-0.5-0.1
			c-0.4,0-0.5,0.1-0.6,0.1c0.2,0.4,0.4,0.7,0.4,1.2C94,33.1,92.8,34,91,34z M89.5,36.4c0,0-0.5,0.3-0.5,0.9s0.5,0.9,1.8,0.9
			c1.3,0,2.2-0.4,2.2-1c0-0.7-0.9-0.7-1.3-0.7L89.5,36.4L89.5,36.4z M92.2,31.7c0-0.7-0.4-1.2-1.2-1.2s-1.2,0.4-1.2,1.2
			c0,0.7,0.5,1.2,1.2,1.2S92.2,32.4,92.2,31.7z"/>
		<path class="st0" d="M102.1,26.9l3.1,7.6l3.1-7.6h2.2v9.9h-1.7V29l-2.9,7.2h-1.6l-2.9-7.2v7.7h-1.6v-9.9
			C99.9,26.9,102.1,26.9,102.1,26.9z"/>
		<path class="st0" d="M118.4,36.5c0,0-1,0.4-2.2,0.4c-1.3,0-2.2-0.4-2.8-0.9c-0.6-0.6-1-1.6-1-2.8c0-2.3,1.2-3.9,3.3-3.9
			c1.2,0,2.1,0.5,2.6,1.3s0.5,1.9,0.5,3.1h-4.7c0,1.3,0.7,2,2.1,2c1,0,2.1-0.4,2.1-0.4h0.1L118.4,36.5L118.4,36.5z M117.1,32.5
			c0-1.2-0.4-1.9-1.3-1.9c-1,0-1.4,0.7-1.5,1.9H117.1z"/>
		<path class="st0" d="M121.9,29.5l0.4,1.3c0.2-0.8,0.8-1.4,2.1-1.4c1.3,0,1.9,0.5,2.2,1.4c0.4-1,1-1.4,2.1-1.4c1.2,0,1.7,0.5,2,1
			c0.4,0.6,0.4,1.4,0.4,2.2v4.2h-1.7v-4.3c0-0.5,0-0.8-0.2-1.2c-0.2-0.3-0.5-0.5-1.1-0.5c-1.2,0-1.3,1-1.3,1.6v4.4h-1.7v-4.3
			c0-0.5,0-0.8-0.2-1.2c-0.2-0.3-0.5-0.5-1.1-0.5c-1.2,0-1.3,1-1.3,1.6v4.4h-1.7v-7.2L121.9,29.5L121.9,29.5L121.9,29.5z"/>
		<path class="st0" d="M134.7,26.5v4.2c0.3-0.8,0.9-1.4,2.2-1.4c1.9,0,3.1,1.4,3.1,3.7c0,2.4-1.2,3.8-3.2,3.8
			c-1.1,0-1.8-0.4-2.2-1.3l-0.4,1.1H133V26.5H134.7z M134.7,33.2c0,1.4,0.5,2.5,1.7,2.5s1.7-1.1,1.7-2.5s-0.4-2.4-1.7-2.4
			C135.2,30.7,134.7,31.7,134.7,33.2z"/>
		<path class="st0" d="M147.2,36.5c0,0-1,0.4-2.2,0.4c-1.3,0-2.2-0.4-2.8-0.9c-0.6-0.6-1-1.6-1-2.8c0-2.3,1.2-3.9,3.3-3.9
			c1.2,0,2.1,0.5,2.6,1.3s0.5,1.9,0.5,3.1H143c0,1.3,0.7,2,2.1,2c1,0,2.1-0.4,2.1-0.4h0.1V36.5z M145.9,32.5c0-1.2-0.4-1.9-1.4-1.9
			s-1.4,0.7-1.5,1.9H145.9z"/>
		<path class="st0" d="M153.4,31c0,0-0.4-0.1-0.7-0.1c-1.5,0-1.5,1.2-1.5,1.7v4h-1.8v-7.2h1.3l0.4,1.4c0.3-1.2,1.2-1.5,2.2-1.5h0.2
			L153.4,31L153.4,31z"/>
		<path class="st0" d="M155.2,35l-1,3.7H153l0.5-3.7H155.2z"/>
		<path class="st0" d="M163.1,26.9l3.1,7.6l3.1-7.6h2.2v9.9h-1.7V29l-2.9,7.2h-1.5l-2.9-7.2v7.7H161v-9.9
			C161,26.9,163.1,26.9,163.1,26.9z"/>
		<path class="st0" d="M173.9,29.7c0,0,0.9-0.4,2.3-0.4c1.1,0,2.1,0.2,2.5,0.9c0.4,0.5,0.4,1.3,0.4,2v2.4c0,0.3,0,0.8,0.6,0.8
			c0.2,0,0.4-0.1,0.4-0.1v1.2c0,0-0.4,0.1-0.9,0.1c-0.9,0-1.5-0.4-1.6-1.3c-0.3,0.8-1.1,1.3-2.2,1.3c-1.4,0-2.3-0.9-2.3-2.2
			c0-1.5,1.3-2.3,3.6-2.3c0.4,0,0.7,0,0.7,0c0-0.6,0-0.9-0.2-1.2c-0.2-0.3-0.5-0.5-1.3-0.5c-1.1,0-2,0.4-2,0.4h-0.1V29.7z
			 M175.9,35.5c0.5,0,1-0.3,1.3-0.7c0.3-0.4,0.3-1,0.3-1.3v-0.2h-0.4c-0.7,0-2.1,0-2.1,1.2C175,35.2,175.3,35.5,175.9,35.5z"/>
		<path class="st0" d="M185.8,31L185.8,31c-0.1,0-1-0.4-1.8-0.4c-0.7,0-1.1,0.3-1.1,0.6c0,1.1,3.2,0.8,3.2,3.2c0,1.5-1.3,2.2-3,2.2
			c-1.3,0-2.1-0.4-2.1-0.4v-1.3h0.1c0,0,1.1,0.5,2,0.5c0.8,0,1.2-0.4,1.2-0.7c0-1.3-3.2-0.9-3.2-3.2c0-1.4,1-2.2,2.9-2.2
			c1,0,1.8,0.3,1.8,0.3V31z"/>
		<path class="st0" d="M192,31L192,31c-0.1,0-1-0.4-1.8-0.4c-0.7,0-1.1,0.3-1.1,0.6c0,1.1,3.2,0.8,3.2,3.2c0,1.5-1.3,2.2-3,2.2
			c-1.3,0-2.1-0.4-2.1-0.4v-1.3h0.1c0,0,1.1,0.5,2,0.5c0.8,0,1.2-0.4,1.2-0.7c0-1.3-3.2-0.9-3.2-3.2c0-1.4,1-2.2,2.9-2.2
			c1,0,1.8,0.3,1.8,0.3V31z"/>
		<path class="st0" d="M205.3,31.5v4.9c0,0-1.3,0.5-3.1,0.5c-3.1,0-5.1-1.6-5.1-4.9c0-3.5,2.2-5.1,5.3-5.1c1.4,0,2.5,0.4,2.5,0.4
			v1.3h-0.1c0,0-1-0.4-2.3-0.4c-2.2,0-3.5,1.2-3.5,3.7s1.4,3.8,3.2,3.8c0.7,0,1.3-0.2,1.3-0.2v-2.5h-1.8v-1.3H205.3z"/>
		<path class="st0" d="M212.8,36.5c0,0-1,0.4-2.2,0.4c-1.4,0-2.2-0.4-2.8-0.9c-0.6-0.6-1-1.6-1-2.8c0-2.3,1.2-3.9,3.3-3.9
			c1.2,0,2.1,0.5,2.6,1.3c0.5,0.8,0.5,1.9,0.5,3.1h-4.7c0,1.3,0.7,2,2.1,2c1,0,2.1-0.4,2.1-0.4h0.1V36.5z M211.5,32.5
			c0-1.2-0.4-1.9-1.3-1.9s-1.4,0.7-1.5,1.9H211.5z"/>
		<path class="st0" d="M216.4,29.5l0.4,1.3c0.3-0.8,0.9-1.4,2.2-1.4c1.1,0,1.7,0.5,2.1,1c0.4,0.6,0.4,1.4,0.4,2.2v4.2h-1.8v-4.3
			c0-0.5,0-0.8-0.3-1.2c-0.3-0.4-0.5-0.5-1.2-0.5c-1.3,0-1.4,1-1.4,1.6v4.4H215v-7.2L216.4,29.5L216.4,29.5L216.4,29.5z"/>
		<path class="st0" d="M229,36.5c0,0-1,0.4-2.2,0.4c-1.4,0-2.2-0.4-2.8-0.9c-0.6-0.6-1-1.6-1-2.8c0-2.3,1.2-3.9,3.3-3.9
			c1.2,0,2.1,0.5,2.6,1.3c0.5,0.8,0.5,1.9,0.5,3.1h-4.7c0,1.3,0.7,2,2.1,2c1,0,2.1-0.4,2.1-0.4h0.1V36.5z M227.6,32.5
			c0-1.2-0.4-1.9-1.4-1.9s-1.4,0.7-1.5,1.9H227.6z"/>
		<path class="st0" d="M235.2,31c0,0-0.4-0.1-0.7-0.1c-1.5,0-1.5,1.2-1.5,1.7v4h-1.7v-7.2h1.3l0.4,1.4c0.3-1.2,1.2-1.5,2.2-1.5h0.2
			V31H235.2z"/>
		<path class="st0" d="M236.4,29.7c0,0,0.9-0.4,2.3-0.4c1.1,0,2.1,0.2,2.5,0.9c0.4,0.5,0.4,1.3,0.4,2v2.4c0,0.3,0,0.8,0.6,0.8
			c0.2,0,0.4-0.1,0.4-0.1v1.2c0,0-0.4,0.1-0.9,0.1c-0.9,0-1.5-0.4-1.6-1.3c-0.3,0.8-1.1,1.3-2.2,1.3c-1.4,0-2.3-0.9-2.3-2.2
			c0-1.5,1.3-2.3,3.6-2.3c0.5,0,0.7,0,0.7,0c0-0.6,0-0.9-0.2-1.2c-0.2-0.3-0.5-0.5-1.3-0.5c-1.1,0-2,0.4-2,0.4h-0.1L236.4,29.7
			L236.4,29.7z M238.6,35.5c0.5,0,1-0.3,1.3-0.7c0.3-0.4,0.3-1,0.3-1.3v-0.2h-0.4c-0.7,0-2.1,0-2.1,1.2
			C237.5,35.2,237.9,35.5,238.6,35.5z"/>
		<path class="st0" d="M245.8,26.5v3v7.3h-1.7V26.5H245.8z"/>
		<path class="st0" d="M254.8,26.9c0.7,0,1.6,0,2.3,0.5c0.6,0.4,1.1,1,1.1,2c0,2-1.7,2.2-1.7,2.2s2.3,0.1,2.3,2.4
			c0,1.2-0.5,1.8-1.3,2.2c-0.9,0.5-1.9,0.5-2.7,0.5h-3.2v-9.9L254.8,26.9L254.8,26.9z M253.3,30.9h1.2c0.4,0,0.8,0,1.2-0.2
			s0.6-0.5,0.6-1.2c0-0.6-0.3-1-0.6-1.2c-0.4-0.2-0.8-0.2-1.2-0.2h-1.2V30.9z M253.3,35.4h1.4c0.4,0,1,0,1.4-0.3
			c0.5-0.3,0.7-0.7,0.7-1.4s-0.3-1.1-0.7-1.3c-0.5-0.3-1-0.3-1.4-0.3h-1.4V35.4z"/>
		<path class="st0" d="M264.3,31c0,0-0.4-0.1-0.7-0.1c-1.5,0-1.5,1.2-1.5,1.7v4h-1.7v-7.2h1.4l0.4,1.4c0.3-1.2,1.2-1.5,2.2-1.5h0.2
			V31H264.3z"/>
		<path class="st0" d="M267.6,27.4c0,0.5-0.5,1-1.1,1s-1.1-0.4-1.1-1s0.5-1,1.1-1S267.6,26.9,267.6,27.4z M267.4,29.5v1v6.2h-1.7
			v-7.2H267.4z"/>
		<path class="st0" d="M272.3,34c-0.4,0-0.7,0-1-0.1c-0.2,0.1-0.4,0.3-0.4,0.6c0,0.5,0.5,0.5,1,0.5h1.3c0.9,0,2.9,0,2.9,2
			c0,1.6-1.3,2.4-3.9,2.4c-2.3,0-3.3-0.6-3.3-1.7c0-1.3,1.4-1.4,1.4-1.4c0,0-0.9-0.4-0.9-1.3s0.9-1.3,1.4-1.3
			c-0.8-0.4-1.3-1.1-1.3-2c0-1.4,1.2-2.3,3-2.3c0.9,0,1.6,0.2,2.2,0.6c0.4-0.9,1.1-0.9,1.5-0.9h0.2v1.4c0,0-0.3-0.1-0.5-0.1
			c-0.4,0-0.5,0.1-0.6,0.1c0.2,0.4,0.4,0.7,0.4,1.2C275.3,33.1,274.1,34,272.3,34z M270.8,36.4c0,0-0.5,0.3-0.5,0.9s0.5,0.9,1.8,0.9
			c1.3,0,2.2-0.4,2.2-1c0-0.7-0.9-0.7-1.4-0.7L270.8,36.4L270.8,36.4z M273.5,31.7c0-0.7-0.5-1.2-1.2-1.2c-0.7,0-1.2,0.4-1.2,1.2
			c0,0.7,0.5,1.2,1.2,1.2C273.1,32.8,273.5,32.4,273.5,31.7z"/>
		<path class="st0" d="M279.3,26.5v4.1c0.3-0.7,0.8-1.3,2.1-1.3c1.2,0,1.8,0.4,2.1,1c0.5,0.6,0.5,1.4,0.5,2.2v4.2h-1.7v-4.3
			c0-0.5,0-0.8-0.3-1.2c-0.3-0.4-0.5-0.5-1.2-0.5c-1.3,0-1.4,1-1.4,1.6v4.4h-1.7V26.5H279.3z"/>
		<path class="st0" d="M286,29.7c0,0,0.9-0.4,2.3-0.4c1.1,0,2.1,0.2,2.5,0.9c0.4,0.5,0.4,1.3,0.4,2v2.4c0,0.3,0,0.8,0.6,0.8
			c0.2,0,0.4-0.1,0.4-0.1v1.2c0,0-0.4,0.1-0.9,0.1c-0.9,0-1.5-0.4-1.6-1.3c-0.3,0.8-1.1,1.3-2.2,1.3c-1.4,0-2.3-0.9-2.3-2.2
			c0-1.5,1.3-2.3,3.6-2.3c0.5,0,0.7,0,0.7,0c0-0.6,0-0.9-0.2-1.2c-0.2-0.3-0.5-0.5-1.3-0.5c-1.1,0-2,0.4-2,0.4H286L286,29.7
			L286,29.7z M288.1,35.5c0.5,0,1-0.3,1.3-0.7c0.3-0.4,0.3-1,0.3-1.3v-0.2h-0.4c-0.7,0-2.1,0-2.1,1.2
			C287.1,35.2,287.4,35.5,288.1,35.5z"/>
		<path class="st0" d="M294.9,29.5l0.4,1.3c0.2-0.8,0.8-1.4,2.1-1.4c1.3,0,1.9,0.5,2.2,1.4c0.4-1,1-1.4,2.1-1.4c1.2,0,1.7,0.5,2,1
			c0.4,0.6,0.4,1.4,0.4,2.2v4.2h-1.7v-4.3c0-0.5,0-0.8-0.2-1.2c-0.2-0.3-0.5-0.5-1.1-0.5c-1.2,0-1.3,1-1.3,1.6v4.4h-1.7v-4.3
			c0-0.5,0-0.8-0.2-1.2c-0.2-0.3-0.5-0.5-1.1-0.5c-1.2,0-1.4,1-1.4,1.6v4.4h-1.7v-7.2L294.9,29.5L294.9,29.5L294.9,29.5z"/>
	</g>
	<g>
		<path class="st0" d="M40.9,2.1c1.3,0,2.7,0,3.9,0.7c1,0.6,1.8,1.6,1.8,3.3c0,3.2-2.9,3.6-2.9,3.6s3.9,0.2,3.9,4.1
			c0,1.9-0.9,3.1-2.1,3.8c-1.4,0.9-3.1,0.9-4.5,0.9h-5.4V2.1H40.9z M38.4,9h2.1c0.6,0,1.3,0,2-0.4s1.1-1,1.1-2s-0.5-1.6-1.1-2
			s-1.4-0.4-2-0.4h-2L38.4,9L38.4,9z M38.4,16.5h2.3c0.7,0,1.6,0,2.4-0.4c0.8-0.5,1.2-1.2,1.2-2.2s-0.3-1.8-1.1-2.2
			s-1.7-0.4-2.4-0.4h-2.3L38.4,16.5L38.4,16.5z"/>
		<path class="st0" d="M56.4,9.2c0,0-0.6-0.1-1.3-0.1c-2.6,0-2.6,1.9-2.6,2.9v6.7h-2.9V6.5h2.2l0.5,2.3c0.4-2,1.9-2.5,3.7-2.5h0.3
			L56.4,9.2C56.3,9.2,56.4,9.2,56.4,9.2z"/>
		<path class="st0" d="M61.4,3.1c0,1-0.7,1.7-1.7,1.7S58,4.1,58,3.1s0.7-1.7,1.7-1.7C60.7,1.4,61.4,2.2,61.4,3.1z M61,6.5v3.6v8.5
			h-2.9V6.5H61z"/>
		<path class="st0" d="M68.8,14.1c-0.6,0-1.2,0-1.6-0.2c-0.3,0.2-0.6,0.4-0.6,1c0,0.9,1,0.9,1.6,0.9h2c1.5,0,4.8,0,4.8,3.2
			c0,2.6-2.1,4-6.5,4c-3.9,0-5.6-1.1-5.6-2.9c0-2.2,2.2-2.4,2.3-2.4c-0.1,0-1.5-0.5-1.5-2.1c0-1.5,1.5-2.1,2.2-2.2
			c-1.3-0.6-2.1-1.8-2.1-3.3c0-2.3,1.9-3.9,4.9-3.9c1.5,0,2.7,0.4,3.6,1.1C73,5.8,74.2,5.8,75,5.8h0.3v2.3c0,0-0.5-0.1-1-0.1
			c-0.5,0-0.8,0.1-1,0.2c0.4,0.5,0.5,1.2,0.5,1.9C73.8,12.6,71.8,14.1,68.8,14.1z M66.3,18.2c0,0-0.8,0.5-0.8,1.4
			c0,1.1,0.9,1.5,3.1,1.5c2.3,0,3.5-0.5,3.5-1.7c0-1.3-1.5-1.3-2.2-1.3C69.9,18.2,66.3,18.2,66.3,18.2z M70.8,10.1
			c0-1.3-0.7-1.9-2-1.9s-2,0.6-2,1.9s0.7,1.9,2,1.9S70.8,11.4,70.8,10.1z"/>
		<path class="st0" d="M79.9,1.5v6.9c0.4-1.3,1.4-2.2,3.4-2.2c1.9,0,3,0.7,3.5,1.6c0.7,1,0.7,2.2,0.7,3.6v7.1h-2.9v-7.1
			c0-0.7,0-1.4-0.4-2c-0.4-0.5-1-0.9-1.9-0.9c-2.2,0-2.4,1.6-2.4,2.6v7.4h-2.9V1.5C77.1,1.5,79.9,1.5,79.9,1.5z"/>
		<path class="st0" d="M90.7,6.9c0,0,1.5-0.5,3.9-0.5c1.8,0,3.4,0.3,4.2,1.5c0.6,0.9,0.6,2.2,0.6,3.2v4.1c0,0.5,0,1.4,1,1.4
			c0.4,0,0.6-0.1,0.6-0.1v2c0,0-0.6,0.2-1.5,0.2c-1.5,0-2.5-0.5-2.7-2.2c-0.4,1.4-1.8,2.2-3.5,2.2c-2.3,0-3.9-1.4-3.9-3.6
			c0-2.6,2.2-3.9,5.9-3.9c0.7,0,1.2,0,1.2,0c0-1,0-1.5-0.4-2c-0.4-0.5-0.9-0.8-2.2-0.8c-1.7,0-3.2,0.6-3.2,0.6h-0.2L90.7,6.9
			L90.7,6.9z M94.2,16.6c0.8,0,1.6-0.4,2.1-1.2c0.4-0.7,0.4-1.6,0.4-2.1v-0.3H96c-1.3,0-3.4,0-3.4,1.9C92.5,16,93.1,16.6,94.2,16.6z
			"/>
		<path class="st0" d="M105.2,6.5l0.5,2.1c0.4-1.4,1.3-2.3,3.5-2.3c2.1,0,3.1,0.9,3.7,2.4c0.5-1.6,1.7-2.4,3.5-2.4
			c1.9,0,2.9,0.8,3.4,1.6c0.6,1,0.6,2.2,0.6,3.6v7.1h-2.9v-7.1c0-0.7,0-1.4-0.4-2c-0.3-0.4-0.8-0.9-1.8-0.9c-2,0-2.2,1.6-2.2,2.6
			v7.4h-2.9v-7.1c0-0.7,0-1.4-0.4-2c-0.3-0.4-0.8-0.9-1.8-0.9c-2,0-2.2,1.6-2.2,2.6v7.4H103V6.5H105.2z"/>
		<path class="st0" d="M129.1,6.9c0,0,1.5-0.5,3.9-0.5c1.8,0,3.4,0.3,4.2,1.5c0.6,0.9,0.6,2.2,0.6,3.2v4.1c0,0.5,0,1.4,1,1.4
			c0.4,0,0.6-0.1,0.6-0.1v2c0,0-0.6,0.2-1.5,0.2c-1.5,0-2.5-0.5-2.7-2.2c-0.4,1.4-1.8,2.2-3.5,2.2c-2.3,0-3.9-1.4-3.9-3.6
			c0-2.6,2.2-3.9,5.9-3.9c0.7,0,1.2,0,1.2,0c0-1,0-1.5-0.4-2c-0.4-0.5-0.9-0.8-2.2-0.8c-1.7,0-3.2,0.6-3.2,0.6h-0.2L129.1,6.9
			L129.1,6.9z M132.6,16.6c0.8,0,1.6-0.4,2.1-1.2c0.4-0.7,0.4-1.6,0.4-2.1v-0.3h-0.6c-1.3,0-3.4,0-3.4,1.9
			C130.9,16,131.5,16.6,132.6,16.6z"/>
		<path class="st0" d="M143.6,6.5l0.5,2.1c0.4-1.4,1.5-2.3,3.6-2.3c1.9,0,2.9,0.7,3.5,1.6c0.7,1,0.7,2.2,0.7,3.6v7.1h-2.9v-7.1
			c0-0.7,0-1.4-0.4-2c-0.4-0.5-1-0.9-1.9-0.9c-2.2,0-2.4,1.6-2.4,2.6v7.4h-2.9V6.5H143.6z"/>
		<path class="st0" d="M165.6,1.5v17.1h-2.2l-0.5-2c-0.4,1.4-1.6,2.2-3.6,2.2c-3.3,0-5.1-2.5-5.1-6.2s1.8-6.4,5.3-6.4
			c1.7,0,2.9,0.6,3.3,2.1V1.5C162.7,1.5,165.6,1.5,165.6,1.5z M157.1,12.6c0,2.4,0.8,4,2.8,4s2.8-1.7,2.8-4.1s-0.7-4-2.7-4
			S157.1,10.2,157.1,12.6z"/>
		<path class="st0" d="M176,2.1l3.2,12.8l3.3-12.4h3l3.3,12.4l3.2-12.8h2.5l-4.5,16.5h-3l-3.3-12.5l-3.4,12.5h-3L173,2.1
			C173,2.1,176,2.1,176,2.1z"/>
		<path class="st0" d="M200.6,19c-3.7,0-5.9-2.2-5.9-6.3s2.2-6.4,5.9-6.4c3.7,0,5.8,2.2,5.8,6.3S204.4,19,200.6,19z M203.5,12.6
			c0-2.7-0.9-4.2-2.8-4.2c-2,0-2.8,1.7-2.8,4.2c0,2.7,0.9,4.2,2.8,4.2C202.7,16.9,203.5,15.2,203.5,12.6z"/>
		<path class="st0" d="M211.1,6.5l0.5,2.1c0.4-1.4,1.3-2.3,3.5-2.3c2.1,0,3.1,0.9,3.7,2.4c0.5-1.6,1.7-2.4,3.5-2.4
			c1.9,0,2.9,0.8,3.4,1.6c0.6,1,0.6,2.2,0.6,3.6v7.1h-2.9v-7.1c0-0.7,0-1.4-0.4-2c-0.3-0.4-0.8-0.9-1.8-0.9c-2,0-2.2,1.6-2.2,2.6
			v7.4h-2.9v-7.1c0-0.7,0-1.4-0.4-2c-0.3-0.4-0.8-0.9-1.8-0.9c-2,0-2.2,1.6-2.2,2.6v7.4H209V6.5H211.1z"/>
		<path class="st0" d="M238.6,18.2c0,0-1.6,0.5-3.8,0.5c-2.3,0-3.7-0.6-4.6-1.5c-1.1-1.1-1.6-2.6-1.6-4.6c0-4,2-6.4,5.6-6.4
			c2,0,3.4,0.7,4.3,2.1c0.8,1.4,0.8,3.1,0.8,5h-7.7c0,2.1,1.2,3.2,3.4,3.2c1.7,0,3.4-0.6,3.4-0.6h0.2L238.6,18.2L238.6,18.2z
			 M236.3,11.4c0-2-0.6-3.1-2.2-3.1c-1.7,0-2.3,1.2-2.5,3.1H236.3z"/>
		<path class="st0" d="M244,6.5l0.5,2.1c0.4-1.4,1.5-2.3,3.6-2.3c1.9,0,2.9,0.7,3.5,1.6c0.7,1,0.7,2.2,0.7,3.6v7.1h-2.9v-7.1
			c0-0.7,0-1.4-0.4-2c-0.4-0.5-1-0.9-1.9-0.9c-2.2,0-2.4,1.6-2.4,2.6v7.4h-2.9V6.5H244z"/>
		<path class="st0" d="M254.5,7.4l0.9-5.9h2.7l-1.6,5.9H254.5z"/>
		<path class="st0" d="M266.8,9.2h-0.2c0,0-1.5-0.6-2.9-0.6c-1.3,0-1.8,0.5-1.8,1.1c0,1.9,5.4,1.4,5.4,5.5c0,2.5-2.1,3.7-5,3.7
			c-2.1,0-3.4-0.5-3.4-0.5v-2.3h0.2c0,0,1.8,0.7,3.3,0.7c1.4,0,1.9-0.5,1.9-1.3c0-2.2-5.4-1.5-5.4-5.5c0-2.2,1.7-3.6,4.8-3.6
			c1.7,0,3,0.4,3,0.4L266.8,9.2C266.7,9.2,266.8,9.2,266.8,9.2z"/>
		<path class="st0" d="M278.4,2.1v6.7h7.3V2.1h3v16.5h-3v-7.5h-7.3v7.5h-3V2.1H278.4z"/>
		<path class="st0" d="M297,19c-3.7,0-5.9-2.2-5.9-6.3s2.2-6.4,5.9-6.4c3.7,0,5.9,2.2,5.9,6.3S300.8,19,297,19z M299.9,12.6
			c0-2.7-0.9-4.2-2.8-4.2c-2,0-2.8,1.7-2.8,4.2c0,2.7,0.9,4.2,2.8,4.2C299.1,16.9,299.9,15.2,299.9,12.6z"/>
		<path class="st0" d="M312.4,9.2h-0.2c0,0-1.5-0.6-2.9-0.6c-1.3,0-1.8,0.5-1.8,1.1c0,1.9,5.4,1.4,5.4,5.5c0,2.5-2.1,3.7-5,3.7
			c-2.1,0-3.4-0.5-3.4-0.5v-2.3h0.2c0,0,1.8,0.7,3.3,0.7c1.4,0,1.9-0.5,1.9-1.3c0-2.2-5.4-1.5-5.4-5.5c0-2.2,1.7-3.6,4.8-3.6
			c1.7,0,3,0.4,3,0.4L312.4,9.2C312.3,9.2,312.4,9.2,312.4,9.2z"/>
		<path class="st0" d="M315.4,22.9V6.5h2.2l0.5,2c0.4-1.3,1.6-2.2,3.6-2.2c3.3,0,5.1,2.5,5.1,6.2s-1.8,6.4-5.3,6.4
			c-1.7,0-2.9-0.6-3.3-2.1v6.1H315.4z M323.8,12.6c0-2.4-0.8-4.1-2.8-4.1c-2.1,0-2.8,1.7-2.8,4.1s0.8,4.1,2.8,4.1
			S323.8,15,323.8,12.6z"/>
		<path class="st0" d="M332.4,3.1c0,1-0.7,1.7-1.7,1.7c-1,0-1.7-0.7-1.7-1.7s0.7-1.7,1.7-1.7C331.7,1.4,332.4,2.2,332.4,3.1z
			 M332.1,6.5v2v10.1h-2.9V6.5H332.1z"/>
		<path class="st0" d="M342.3,18.5c0,0-0.9,0.3-2.2,0.3c-1.7,0-2.9-0.4-3.4-1.3c-0.5-0.8-0.5-1.8-0.5-3.2V8.8h-2.2V6.7h2.2V3.6
			l2.9-0.8v4h3.3v2.1h-3.3v5.4c0,0.8,0,1.3,0.3,1.8s0.7,0.5,1.3,0.5c0.8,0,1.6-0.3,1.6-0.3h0.2V18.5z"/>
		<path class="st0" d="M344.9,6.9c0,0,1.5-0.5,3.9-0.5c1.8,0,3.4,0.3,4.2,1.5c0.6,0.9,0.6,2.2,0.6,3.2v4.1c0,0.5,0,1.4,1,1.4
			c0.4,0,0.6-0.1,0.6-0.1v2c0,0-0.6,0.2-1.5,0.2c-1.5,0-2.5-0.5-2.7-2.2c-0.5,1.4-1.8,2.2-3.5,2.2c-2.3,0-3.9-1.4-3.9-3.6
			c0-2.6,2.2-3.9,5.9-3.9c0.7,0,1.2,0,1.2,0c0-1,0-1.5-0.4-2c-0.4-0.5-0.9-0.8-2.2-0.8c-1.7,0-3.2,0.6-3.2,0.6h-0.2L344.9,6.9
			L344.9,6.9z M348.4,16.6c0.8,0,1.6-0.4,2.1-1.2c0.4-0.7,0.4-1.6,0.4-2.1v-0.3h-0.6c-1.3,0-3.4,0-3.4,1.9
			C346.7,16,347.3,16.6,348.4,16.6z"/>
		<path class="st0" d="M360,1.5v17.1h-2.9V6.4V1.5H360z"/>
	</g>
	<g>
		<polygon class="st1" points="3.4,14.9 0,14.9 0,20.8 0,26.1 3.4,26.1 		"/>
		<polygon class="st1" points="7.4,14.9 7.4,20.8 7.4,26.1 10.9,26.1 10.9,14.9 		"/>
		<polygon class="st1" points="14.8,14.9 14.8,20.8 14.8,26.1 18.3,26.1 18.3,14.9 		"/>
		<polygon class="st1" points="0,12.8 12.9,12.8 25.7,12.8 25.7,9.6 0,9.6 		"/>
		<polygon class="st1" points="12.9,1.1 0,5.3 0,8.6 12.9,4.3 25.7,8.6 25.7,5.3 		"/>
		<path class="st1" d="M25.7,25.8c-0.1,0.2-1.3,2.3-9.5,2.3H9.5c-8.5,0.1-9.4,1.2-9.5,1.3v3.2c0.2-0.1,1.1-1.2,9.5-1.3h6.7
			c8.2,0,9.4-2.2,9.5-2.3V25.8z"/>
		<path class="st1" d="M25.7,31.1c-0.1,0.2-1.3,2.3-9.5,2.3H9.5c-8.5,0.1-9.4,1.2-9.5,1.3V38c0.2-0.1,1.1-1.2,9.5-1.3h6.7
			c8.2,0,9.4-2.2,9.5-2.3V31.1z"/>
		<path class="st1" d="M22.2,14.9v10.6c2.8-0.6,3.4-1.6,3.4-1.8v-8.8C25.6,14.9,22.2,14.9,22.2,14.9z"/>
	</g>
</g>
</svg>
